<?xml version="1.0" encoding="UTF-8"?>
<!DOCTYPE svg  PUBLIC '-//W3C//DTD SVG 1.1//EN'  'http://www.w3.org/Graphics/SVG/1.1/DTD/svg11.dtd'>
<svg version="1.1" viewBox="0 0 640 640" xmlns="http://www.w3.org/2000/svg" xmlns:xlink="http://www.w3.org/1999/xlink">
<defs>
<path id="c" d="m480.71 104.28-137.06 40.69 237.27 202.17 18.42-141.76 18.42-141.78-137.05 40.68z"/>
<path id="d" d="M159.29 104.28L296.35 144.97L177.71 246.06L59.08 347.14L40.66 205.38L22.24 63.6L159.29 104.28Z"/>
<path id="e" d="m617.76 347.14c0 150.36-133.42 272.43-297.76 272.43s-297.76-122.07-297.76-272.43c0-150.35 133.42-272.43 297.76-272.43s297.76 122.08 297.76 272.43z"/>
<path id="a" d="m435.32 205.38c63.7 0 115.32 50.32 115.32 112.39 0.01 171.88-230.63 257.18-230.63 261.91 0-4.73-230.65-90.03-230.65-261.93 0-62.06 51.63-112.38 115.32-112.38s115.33 44.08 115.31 106.16c0-62.06 51.64-106.15 115.33-106.15z"/>
<path id="b" d="m550.64 337.36h-162.21l-22.3 41.88-19.49-41.88-63.67 141.76-50.68-232.11-25.99 90.35-9.09-36.89-19.49 36.89h-88.36"/>
</defs>
<use fill="#464275" xlink:href="#c"/>
<use fill="#464275" xlink:href="#d"/>
<use fill="#585392" xlink:href="#e"/>
<use fill="#da5757" xlink:href="#a"/>
<use fill-opacity="0" stroke="#6d0103" stroke-width="0" xlink:href="#a"/>
<use fill-opacity="0" stroke="#12111d" stroke-width="20" xlink:href="#b"/>
</svg>
